<?xml version="1.0" standalone="no"?>
<!DOCTYPE svg PUBLIC "-//W3C//DTD SVG 1.0//EN" "http://www.w3.org/TR/2001/REC-SVG-20010904/DTD/svg10.dtd">
<svg xmlns="http://www.w3.org/2000/svg" xmlns:xlink="http://www.w3.org/1999/xlink" id="body_1" width="48" height="48">

<g transform="matrix(0.09836066 0 0 0.09836066 0 0)">
	<g>
		<g>
            <path d="M0 53C 0 23.728909 23.728909 0 53 0L53 0L435 0C 464.2711 0 488 23.728909 488 53L488 53L488 435C 488 464.2711 464.2711 488 435 488L435 488L53 488C 23.728909 488 0 464.2711 0 435L0 435L0 53z" stroke="none" fill="#0273B3" fill-rule="nonzero" />
            <path d="M329 389L390 389L390 275C 391 260 386 236 380 223C 373 209 363 200 347 195C 331 190 309 189 293 195C 281 199 274 205 266 214C 265 215 264 216 263 218C 262 219 262 220 261 220C 260 223 262 222 259 222L259 222L259 195L202 195C 201 198 201 387 202 390L202 390L261 390C 262 386 262 310 262 300C 262 270 265 245 296 244C 329 242 329 271 329 300C 329 307 330 384 329 389zM129 99C 111 102 96 117 99 139C 101 157 118 172 139 169C 156 166 171 150 168 129C 166 112 149 96 129 99zM104 390L163 390C 164 385 164 349 164 341C 164 294 164 243 164 196L164 196L104 196L104 390z" stroke="none" fill="#FFFFFF" fill-rule="nonzero" />
            <path d="M261 390L202 390C 201 387 201 198 202 195L202 195L256 195L158 109C 164 114 167 121 168 129C 171 150 156 166 139 169C 129 170 120 167 113 162L113 162L146 196L164 196C 164 243 164 294 164 341C 164 349 164 385 163 390L163 390L104 390L203 488L436 488L488 436L488 328L372 211C 375 215 378 219 380 223C 386 236 391 260 390 275L390 275L390 389L329 389C 330 384 329 307 329 300C 329 271 329 242 296 244C 265 245 262 270 262 300C 262 310 262 386 261 390z" stroke="none" fill="#025E91" fill-rule="nonzero" />
            <path d="M270 210L259 199L259 222C 262 222 260 223 261 220L261 220L263 218L266 214C 267 212 268 211 270 210z" stroke="none" fill="#025E91" fill-rule="nonzero" />
		</g>
	</g>
</g>
</svg>